# Blender v2.83.9 OBJ File: ''
# www.blender.org
mtllib wisp_jar.mtl
o cube.000
v 0.312500 0.260000 0.312500
v 0.312500 -0.490000 0.312500
v 0.312500 0.260000 -0.312500
v 0.312500 -0.490000 -0.312500
v -0.312500 0.260000 -0.312500
v -0.312500 -0.490000 -0.312500
v -0.312500 0.260000 0.312500
v -0.312500 -0.490000 0.312500
v 0.187500 0.322500 0.187500
v 0.187500 0.260000 0.187500
v 0.187500 0.322500 -0.187500
v 0.187500 0.260000 -0.187500
v -0.187500 0.322500 -0.187500
v -0.187500 0.260000 -0.187500
v -0.187500 0.322500 0.187500
v -0.187500 0.260000 0.187500
v 0.312500 0.260000 0.312500
v 0.312500 -0.490000 0.312500
v 0.312500 0.260000 -0.312500
v 0.312500 -0.490000 -0.312500
v -0.312500 0.260000 -0.312500
v -0.312500 -0.490000 -0.312500
v -0.312500 0.260000 0.312500
v -0.312500 -0.490000 0.312500
vt 0.625326 0.312988
vt 0.833008 0.312988
vt 0.833008 0.687012
vt 0.625326 0.687012
vt 0.000326 0.000488
vt 0.124674 0.000488
vt 0.124674 0.030762
vt 0.000326 0.030762
vt 0.249674 0.218262
vt 0.125326 0.218262
vt 0.125326 0.031738
vt 0.249674 0.031738
vt 0.250326 0.000488
vt 0.374674 0.000488
vt 0.374674 0.030762
vt 0.250326 0.030762
vt 0.624674 0.687988
vt 0.416992 0.687988
vt 0.416992 0.999512
vt 0.624674 0.999512
vt 0.416992 0.312988
vt 0.624674 0.312988
vt 0.624674 0.687012
vt 0.416992 0.687012
vt 0.416341 0.999512
vt 0.208659 0.999512
vt 0.208659 0.687988
vt 0.416341 0.687988
vt 0.000326 0.312988
vt 0.208008 0.312988
vt 0.208008 0.687012
vt 0.000326 0.687012
vt 0.208659 0.312988
vt 0.416341 0.312988
vt 0.416341 0.687012
vt 0.208659 0.687012
vt 0.374674 0.031738
vt 0.250326 0.031738
vt 0.250326 0.218262
vt 0.374674 0.218262
vt 0.375326 0.000488
vt 0.499674 0.000488
vt 0.499674 0.030762
vt 0.375326 0.030762
vt 0.125326 0.000488
vt 0.249674 0.000488
vt 0.249674 0.030762
vt 0.125326 0.030762
vt 0.625326 0.312988
vt 0.625326 0.687012
vt 0.833008 0.687012
vt 0.833008 0.312988
vt 0.624674 0.687988
vt 0.624674 0.999512
vt 0.416992 0.999512
vt 0.416992 0.687988
vt 0.416992 0.312988
vt 0.416992 0.687012
vt 0.624674 0.687012
vt 0.624674 0.312988
vt 0.416341 0.999512
vt 0.416341 0.687988
vt 0.208659 0.687988
vt 0.208659 0.999512
vt 0.000326 0.312988
vt 0.000326 0.687012
vt 0.208008 0.687012
vt 0.208008 0.312988
vt 0.208659 0.312988
vt 0.208659 0.687012
vt 0.416341 0.687012
vt 0.416341 0.312988
vn 0.0000 -0.0000 1.0000
vn 1.0000 0.0000 0.0000
vn 0.0000 1.0000 0.0000
vn -1.0000 0.0000 0.0000
vn 0.0000 -1.0000 -0.0000
vn 0.0000 0.0000 -1.0000
usemtl m_0
s 1
f 8/1/1 2/2/1 1/3/1 7/4/1
f 10/5/2 12/6/2 11/7/2 9/8/2
f 15/9/3 9/10/3 11/11/3 13/12/3
f 14/13/4 16/14/4 15/15/4 13/16/4
f 6/17/5 4/18/5 2/19/5 8/20/5
f 6/21/4 8/22/4 7/23/4 5/24/4
f 7/25/3 1/26/3 3/27/3 5/28/3
f 2/29/2 4/30/2 3/31/2 1/32/2
f 4/33/6 6/34/6 5/35/6 3/36/6
f 14/37/5 12/38/5 10/39/5 16/40/5
f 16/41/1 10/42/1 9/43/1 15/44/1
f 12/45/6 14/46/6 13/47/6 11/48/6
f 24/49/6 23/50/6 17/51/6 18/52/6
f 22/53/3 24/54/3 18/55/3 20/56/3
f 22/57/2 21/58/2 23/59/2 24/60/2
f 23/61/5 21/62/5 19/63/5 17/64/5
f 18/65/4 17/66/4 19/67/4 20/68/4
f 20/69/1 19/70/1 21/71/1 22/72/1
